# xmcd
# Copyright (C) 1995-1998 Ti Kan
#
# Track frame offsets:
#       150
#       13677
#       37156
#       52761
#       61362
#       79794
#       103436
#       126435
#       133566
#       146874
#       156475
#       184903
#       206058
#       223119
#       237047
#       257968
#       268717
#       285860
#       305204
#
# Disc length: 4298 seconds
#
# Revision: 0
# Processed by: cddbd v1.5.2PL0 Copyright (c) Steve Scherf et al.
# Submitted via: CD-Transfer v1.0
#
DISCID=2e10c813
DTITLE=Palumo - 
DYEAR=1900
DGENRE=
TTITLE0=60 Revolutions
TTITLE1=Distemper
TTITLE2=Van Tango
TTITLE3=So Much Left To Say
TTITLE4=Roadrunner
TTITLE5=Light On My Way
TTITLE6=No Hay
TTITLE7=Move To Slow
TTITLE8=Mardy Bum
TTITLE9=Keep A Cool Head
TTITLE10=Hey Man
TTITLE11=Cult
TTITLE12=Come Wi Go Dong Deh
TTITLE13=Breed
TTITLE14=Blue World
TTITLE15=Armagideon Time
TTITLE16=Anna Molly
TTITLE17=Am Gländer
TTITLE18=Alten Resten Eine Chance
EXTD=
EXTT0=
EXTT1=
EXTT2=
EXTT3=
EXTT4=
EXTT5=
EXTT6=
EXTT7=
EXTT8=
EXTT9=
EXTT10=
EXTT11=
EXTT12=
EXTT13=
EXTT14=
EXTT15=
EXTT16=
EXTT17=
EXTT18=
PLAYORDER=
